<?xml version="1.0" encoding="UTF-8"?> <!-- Generator: Adobe Illustrator 21.1.0, SVG Export Plug-In . SVG Version: 6.00 Build 0) --> <svg xmlns="http://www.w3.org/2000/svg" xmlns:xlink="http://www.w3.org/1999/xlink" x="0px" y="0px" viewBox="0 0 1116.9 253" style="enable-background:new 0 0 1116.9 253;" xml:space="preserve"> <style type="text/css"> .st0{display:none;} .st1{display:inline;} .st2{display:inline;fill:#FFFFFF;} .st3{fill:#FFFFFF;} .st4{fill:none;} .st5{fill-rule:evenodd;clip-rule:evenodd;fill:#EDF0F2;} .st6{fill:#EFF1F3;} .st7{fill-rule:evenodd;clip-rule:evenodd;fill:#FFFFFF;} .st8{fill-rule:evenodd;clip-rule:evenodd;fill:#3A3A3A;} .st9{fill-rule:evenodd;clip-rule:evenodd;fill:#C21300;} .st10{fill:#3F3F3F;} .st11{fill:#354959;} </style> <g id="Слой_2" class="st0"> </g> <g id="Слой_1"> <g> <g> <path class="st10" d="M659.5,202.9c-23.4,0-46.7,0-70.1,0c-37.1,0-74.2,0-111.2,0c-8.6,0-17.1,0-25.7,0c1.6,1.1,3.1,2.3,4.7,3.4 c0-19.8,0-39.7,0-59.5c0-31.8,0-63.6,0-95.5c0-7.3,0-14.6,0-21.9c-1.7,1.4-3.4,2.8-5.1,4.3c23.4,0,46.7,0,70.1,0 c37.1,0,74.2,0,111.2,0c8.6,0,17.1,0,25.7,0c-1.6-1.1-3.1-2.3-4.7-3.4c0,19.8,0,39.7,0,59.5c0,31.8,0,63.6,0,95.5 c0,7.3,0,14.6,0,21.9c0,5.4,9.8,3.9,9.8-0.9c0-19.8,0-39.7,0-59.5c0-31.8,0-63.6,0-95.5c0-7.3,0-14.6,0-21.9 c0-2.6-2.5-3.4-4.7-3.4c-23.4,0-46.7,0-70.1,0c-37.1,0-74.2,0-111.2,0c-8.6,0-17.1,0-25.7,0c-2.1,0-5.1,1.9-5.1,4.3 c0,19.8,0,39.7,0,59.5c0,31.8,0,63.6,0,95.5c0,7.3,0,14.6,0,21.9c0,2.6,2.5,3.4,4.7,3.4c23.4,0,46.7,0,70.1,0 c37.1,0,74.2,0,111.2,0c8.6,0,17.1,0,25.7,0C664.8,210.6,666,202.9,659.5,202.9z"></path> </g> </g> <g> <g> <path class="st10" d="M476.2,77c45.8,0,91.7,0,137.5,0c6.5,0,13,0,19.5,0c-1.8-1.3-3.6-2.7-5.3-4c0,30.9,0,61.8,0,92.7 c0,4.4,0,8.7,0,13.1c1.5-1.2,3-2.4,4.5-3.6c-45.8,0-91.7,0-137.5,0c-6.5,0-13,0-19.5,0c1.8,1.3,3.6,2.7,5.3,4 c0-30.9,0-61.8,0-92.7c0-4.4,0-8.7,0-13.1c0-4.7-9.8-5.8-9.8-0.4c0,30.9,0,61.8,0,92.7c0,4.4,0,8.7,0,13.1c0,2.4,3.3,4,5.3,4 c45.8,0,91.7,0,137.5,0c6.5,0,13,0,19.5,0c2.3,0,4.5-1.1,4.5-3.6c0-30.9,0-61.8,0-92.7c0-4.4,0-8.7,0-13.1c0-2.4-3.3-4-5.3-4 c-45.8,0-91.7,0-137.5,0c-6.5,0-13,0-19.5,0C468.8,69.4,470.4,77,476.2,77z"></path> </g> </g> <g> <g> <path class="st10" d="M483,48.8c0-12,0-24.1,0-36.1c0-5.6-7.5-8.2-7.5-1.6c0,12,0,24.1,0,36.1C475.5,52.7,483,55.4,483,48.8 L483,48.8z"></path> </g> </g> <g> <g> <path class="st10" d="M636.5,47.7c0-12,0-24.1,0-36.1c0-6.3-7.5-5.5-7.5,0.6c0,12,0,24.1,0,36.1C629,54.5,636.5,53.8,636.5,47.7 L636.5,47.7z"></path> </g> </g> <g> <g> <path class="st10" d="M536.5,48.1c0-12,0-24.1,0-36.1c0-5-10-5.2-10-0.3c0,12,0,24.1,0,36.1C526.6,52.8,536.5,53.1,536.5,48.1 L536.5,48.1z"></path> </g> </g> <g> <g> <path class="st10" d="M588.4,46.5c0-12,0-24.1,0-36.1c0-5.7-9-1.7-9,3c0,12,0,24.1,0,36.1C579.4,55.1,588.4,51.2,588.4,46.5 L588.4,46.5z"></path> </g> </g> <g> <g> <path class="st10" d="M475.9,114.2c45.8,0,91.7,0,137.5,0c6.5,0,13,0,19.5,0c4.7,0,5.2-9.8-0.2-9.8c-45.8,0-91.7,0-137.5,0 c-6.5,0-13,0-19.5,0C471,104.4,470.5,114.2,475.9,114.2L475.9,114.2z"></path> </g> </g> <g> <g> <path class="st10" d="M475.9,144.9c45.8,0,91.7,0,137.5,0c6.5,0,13,0,19.5,0c5.4,0,4.4-9.8-0.4-9.8c-45.8,0-91.7,0-137.5,0 c-6.5,0-13,0-19.5,0C470.2,135,471.2,144.9,475.9,144.9L475.9,144.9z"></path> </g> </g> <g> <g> <path class="st10" d="M550.5,75c0,29.1,0,58.3,0,87.4c0,4.1,0,8.2,0,12.4c0,6.2,7.5,6.6,7.5,0.3c0-29.1,0-58.3,0-87.4 c0-4.1,0-8.2,0-12.4C558,69.1,550.5,68.7,550.5,75L550.5,75z"></path> </g> </g> <g> <g> <path class="st10" d="M509.3,74.8c0,28.5,0,57,0,85.6c0,4.1,0,8.3,0,12.4c0,5,10,5.7,10,0.7c0-28.5,0-57,0-85.6 c0-4.1,0-8.3,0-12.4C519.2,70.5,509.3,69.8,509.3,74.8L509.3,74.8z"></path> </g> </g> <g> <g> <path class="st10" d="M591.6,75.3c0,29.1,0,58.3,0,87.4c0,4.1,0,8.2,0,12.4c0,6.3,7.5,5.8,7.5-0.4c0-29.1,0-58.3,0-87.4 c0-4.1,0-8.2,0-12.4C599.1,68.7,591.6,69.1,591.6,75.3L591.6,75.3z"></path> </g> </g> <g> <g> <path class="st10" d="M977.5,158.6c8-2.4,15.7-7.4,20.5-14.4c6.4-9.3,8-22.9,8.5-34c-3.2,0.7-6.4,1.5-9.6,2.2 c-0.1,15.9,3.3,34.4,18.4,42.8c0.4,0.2,1.8,1.3,2.2,1.1c1.6-2.6,1.7-3.4,0.5-2.4c-0.2,0.1-0.3,0.2-0.5,0.4 c-1.2,0.6-2.4,1.9-3.4,2.8c-2.8,2.5-5.3,5.3-7.5,8.5c-6.1,8.7-8.6,18.9-9.2,29.4c3.2-0.7,6.4-1.5,9.6-2.2 c-2.3-16.4-10.1-37.4-27.8-41.9c-4.7-1.2-10.3,6.2-4.2,7.8c14.4,3.7,20.6,23.3,22.4,36.4c0.8,5.6,9.4,2.3,9.6-2.2 c0.5-10.1,3.5-20.2,10.4-27.9c3-3.4,13.7-9.1,8.4-14.3c-1.2-1.2-3.2-1.7-4.7-2.6c-2.2-1.3-4.2-3-5.9-4.9 c-3.5-3.9-5.4-8.7-6.6-13.7c-1.5-6.2-2.1-12.7-2.1-19.1c0-5.3-9.4-2.5-9.6,2.2c-0.1,3.1-0.6,6.1-1.1,9.1c-1,6.1-2,13.3-5.1,18.7 c-2.1,3.6-5.5,6.4-9.1,8.5c-1.2,0.7-2.4,1.2-3.7,1.7c-0.2,0.1-1.7,0.7-0.9,0.4c0.7-0.3,0.1,0-0.1,0 C971.6,152.5,971.2,160.5,977.5,158.6z"></path> </g> </g> <g> <g> <path class="st10" d="M800.7,119.1c19.9-22.5,17.8-58.8-4.4-79c-20.4-18.5-52.2-17.5-70.9,3.1c-9.1,10.1-14.1,23.5-14,37.1 c0,8,1.6,15.9,4.8,23.2c3.3,7.5,8.4,12.9,13.1,19.4c8.2,11.4,8.9,24.2,8.9,37.6c0,4.6-0.1,8.7,3.1,12.4c4.4,5.1,11.5,7.1,18,7.8 c7.8,0.8,17.7-0.2,24-5.5c4.3-3.6,4.4-7.8,4.4-12.8c0-5.6-0.2-11.3,0.6-16.9C789.7,135.5,794.1,126.5,800.7,119.1 c3.1-3.5-2.5-11.3-6.3-7c-9,10.2-14,23.5-14.4,37.1c-0.1,3.5,0,7,0,10.5c0,4.3,0.2,6.5-4.2,8.7c-6.3,3.2-14.5,3.5-21.3,1.9 c-2.4-0.6-5.7-1.4-7.5-3.2c-1.3-1.3-0.9-1.2-1-2.8c-0.5-9.7,0.3-18.9-2.4-28.5c-1.8-6.6-4.8-12.8-8.8-18.4 c-3.9-5.5-8.6-10.1-11.5-16.3c-5.6-12-5.4-26.4,0-38.5c9.9-21.9,36.5-32.6,58.5-22.2c27.8,13,32,49.6,12.5,71.6 C791.3,115.6,796.9,123.4,800.7,119.1z"></path> </g> </g> <g> <g> <path class="st10" d="M763.9,161.8c0.8-16.1,0.8-32.3-0.5-48.4c-0.7-8.9-1.4-19.4-5.7-27.4c-3.9-7.3-12.1-8.4-18.1-2.6 c-8.6,8.5-2.9,23.4,2.9,31.8c6.5,9.4,18,16.7,28.9,9.7c9.7-6.3,16.2-18.4,19.8-29c3.1-9.2,4.6-22.9-6.3-27.5 c-12.9-5.5-16,10.4-16.7,19.5c-1.6,21.5-0.4,43.1-1.6,64.6c-0.3,5.2,9.3,2.5,9.6-2.2c0.9-16.7,0.9-33.5,1.1-50.3 c0.1-5.7,0.1-11.5,0.8-17.2c0.2-1.9,0.5-3.9,1.1-5.8c0.1-0.4,0.5-1.1,0.5-1.6c0.1-1.6,0.9-0.2-0.2-0.3c-2.2-0.2-0.9,0.3,0.2,0.9 c1.6,0.9,2.6,2.1,3.3,3.7c1.6,3.8,0.9,8.3,0,12.2c-2.2,9.1-7.1,19-14.1,25.5c-2.5,2.3-4,3.2-7.4,2.1c-4.6-1.6-8.2-5.7-10.8-9.6 c-2.8-4.3-5.1-9.5-5.6-14.7c-0.2-1.8-0.3-3.9,0.3-5.6c0.3-0.7,1.5-2.6,1-1.8c0.1-0.2-0.1-0.2,0.1-0.1c0,0,1.2,1,1.4,1.4 c1.6,2.2,2.4,5.2,3.1,7.8c2.1,8.1,2.7,16.6,3.2,24.9c0.8,14.1,0.8,28.4,0.1,42.5C754,169.2,763.6,166.6,763.9,161.8L763.9,161.8z "></path> </g> </g> <g> <g> <path class="st10" d="M750.4,183.6c-4.1,3.1-8.2,7.4-10,12.3c-3.8,10.3,6.1,14.4,14.6,15.6c9,1.3,26.6,3.3,32.9-5.6 c5.2-7.4-2.8-13-9.3-14.8c-9.6-2.7-18.9-0.2-26.6,6c-7.2,5.9-14.2,16-11.9,25.9c3,12.4,19.8,16.3,30.7,16.4 c7.7,0.1,18-4.4,16-13.9c-2.3-10.7-16.3-8.5-24-6.3c-10.3,3-28,13.9-16.8,25.9c3.3,3.5,9.6-4.2,6.2-7.9 c-5.1-5.4,10.7-9.4,14-10.1c2.8-0.6,6.8-1.3,9.6-0.3c1.4,0.5,1.9,1.7,2.6,2.4c0.3,0.4,0.7,0.7,0.4,0.2c0,0.1,0.5-0.1-0.1,0 c-3.3,0.4-6.1,0.9-9.5,0.4c-6.9-0.9-19.7-3.4-20.7-12.2c-0.7-5.5,3.8-10.8,7.7-14.1c4.8-3.9,10.2-5.4,16.3-4.2 c2.1,0.4,4.4,1.1,6.3,2.2c0.6,0.4,1.6,1.4,2.1,1.6c0.6,0.2,0.3,0.8,0.7-1c0.4-1.5,1.4-0.9-0.4-0.5c-1.5,0.4-2.9,0.8-4.4,1 c-5.4,0.7-11,0.5-16.4,0c-3.6-0.4-8.8-0.8-11.6-3.5c-1.2-1.2-0.7-1.8,0-2.9c1.2-2.2,3.3-4.1,5.8-6 C759,186.7,755.6,179.7,750.4,183.6L750.4,183.6z"></path> </g> </g> <g> <g> <path class="st10" d="M958.5,207.1c-4.5,4.5-9,9-13.6,13.5c1.6-0.1,3.2-0.1,4.8-0.2c-13.3-13.5-26.7-26.9-40-40.4 c-9.4-9.5-18.8-19-28.2-28.4c-5-5-10.4-9.9-15.1-15.2c-0.4-0.4-0.5-0.6,0.3,0.5c-0.3-0.5-0.6-1.2-0.8-1.7 c-1.3-2.9-2.8-5.8-4.2-8.7c-2.5-5.3-5.1-10.6-7.6-15.9c-2,2.5-3.9,5-5.9,7.5c4.4,2.2,8.7,4.3,13.1,6.5c2.8,1.4,5.6,2.7,8.3,4.1 c1.1,0.5,2.1,1.1,3.2,1.6c0.3,0.1,2.1,1.1,1.1,0.5c-0.9-0.6,0.3,0.4,0.5,0.6c0.8,0.9,1.7,1.7,2.6,2.6c3.1,3.1,6.1,6.2,9.2,9.3 c18.5,18.7,37,37.4,55.5,56c5.1,5.2,10.2,10.3,15.4,15.5c3.8,3.8,9.5-4.3,6.1-7.7c-13.5-13.6-26.9-27.2-40.4-40.7 c-9.5-9.5-18.9-19.1-28.4-28.6c-4.8-4.8-9.4-10.5-14.7-14.8c-3.2-2.6-7.7-4.1-11.4-5.9c-5.3-2.6-10.5-5.2-15.8-7.8 c-3.9-1.9-7.4,4.3-5.9,7.5c2.1,4.4,4.2,8.8,6.3,13.2c2.1,4.3,3.7,9.2,6.3,13.2c3.1,4.8,8.5,8.8,12.5,12.9 c18.8,18.9,37.5,37.9,56.3,56.8c5.1,5.2,10.2,10.3,15.4,15.5c1.3,1.3,3.6,1.1,4.8-0.2c4.5-4.5,9-9,13.6-13.5 c1.7-1.6,3.1-4.4,1.9-6.7C962.8,205.7,960.1,205.5,958.5,207.1z"></path> </g> </g> <g> <g> <path class="st10" d="M869.5,147.4c4.5-4.5,9-9,13.6-13.5c1.6-1.6,2.9-4.4,1.5-6.5c-1.4-2-4.3-1.3-5.8,0.1 c-4.5,4.5-9,9-13.6,13.5c-1.6,1.6-2.9,4.4-1.5,6.5C865.1,149.6,868,148.9,869.5,147.4L869.5,147.4z"></path> </g> </g> <g> <g> <path class="st10" d="M317,181.8c-6.2,16-21.2,26.5-38.4,26.6c-17.3,0.1-33.2-10.9-39.2-27c-6-15.9-0.6-33.9,12.7-44.3 c13.3-10.4,32.4-11.5,46.9-2.8c17,10.1,24.1,30.3,17.6,48.8c-0.7,2,0.2,5.2,2.5,5.7c2.6,0.6,4.1-2,4.8-4 c6.8-19.3,1.4-41.3-14.2-54.8c-15.6-13.6-38.9-15.1-56.4-4.3c-17.6,10.8-27,32.3-23.1,52.6c3.7,19.7,19.3,35.7,39.2,39.2 c23.2,4,45.7-9.8,54.1-31.4c0.8-2.1,1.1-5.2-1.1-6.6C320.3,178.3,317.7,179.8,317,181.8z"></path> </g> </g> <g> <g> <path class="st10" d="M384.7,172.1c16,22,5.2,52.5-20,61.2c-22.5,7.7-48.1-5.7-53.6-29c-3.3-14,2-28.4,12.4-38 c3.4-3.2,0-12.3-4.2-8.4c-22.8,20.9-22,58.7,2.8,77.8c23.9,18.4,59,9.7,72.4-17c8.8-17.4,6.4-38.1-4.9-53.7 C386.1,159.7,381.9,168.2,384.7,172.1L384.7,172.1z"></path> </g> </g> <g> <g> <path class="st10" d="M373.8,132.6c-6.1,15.8-20.5,27.3-37.8,27.4c-17.2,0.2-32.6-11.7-37.8-27.9c-5.2-16.2,0.1-34.3,13.2-45.2 c12.9-10.7,31.7-12.3,45.9-3.2c16.7,10.6,22.6,31.5,16.1,49.8c-1.6,4.6,8.2,6.5,9.8,1.8c6.8-19.4,0.4-41-15.5-53.9 c-16-13-39.6-15-57.4-4.5c-17.7,10.4-27.4,31.4-23,51.6c4.3,19.7,20.8,34.9,40.6,38.3c23,4,46.5-8.7,55-30.6 C384.9,131.3,375.5,128.2,373.8,132.6z"></path> </g> </g> <g> <g> <path class="st10" d="M96.1,152.9c7.2-2.7,14.5-7.5,19.1-13.7c6.4-8.6,8.2-21.7,8.6-32.2c-2.5-0.5-5-1-7.5-1.5 c0,7.2,0.9,14.5,2.9,21.4c1.4,4.9,3.5,9.5,6.8,13.4c1.7,2,3.7,3.8,5.9,5.4c1.8,1.3,4.8,2.1,6.4,3.5c-0.5-1.1-1.1-2.2-1.6-3.3 c0,0.3,0.1,0.7,0.1,1c0.4-1.5,0.8-3,1.2-4.5c-1.4,1.9-4,3.2-5.8,4.8c-2.6,2.3-4.8,5-6.8,7.9c-5.3,7.8-7.6,17-8.1,26.3 c2.5,0.1,5,0.1,7.5,0.2c-3.6-15.7-13.1-34.2-30.1-38.2c-5.1-1.2-5.2,8.7-0.5,9.8c8.7,2.1,14.5,9.3,18.4,17c1.5,2.9,2.7,6,3.7,9.1 c0.3,1,0.6,2.1,1,3.1c0.5,1.6,0-0.1,0.1,0.3c1.1,4.7,7.2,6.2,7.5,0.2c0.5-9.3,3.4-18.3,9.8-25.2c3.9-4.2,12.4-7.7,8.9-14.8 c-1.7-3.4-6.4-4.2-9.2-6.4c-4.1-3.1-6.5-7.2-7.9-12c-1.7-5.5-2.4-11.6-2.4-17.4c0-5.6-7.3-8.2-7.5-1.5 c-0.4,8.8-1.7,20.7-7.6,27.6c-4.1,4.8-10.1,8.4-16,10.6C88.3,145.3,91.1,154.8,96.1,152.9z"></path> </g> </g> <g> <g> <path class="st10" d="M159.2,120.6c9.4-2.7,18.8-9,24.2-17.2c4.9-7.4,6.7-16.9,8.3-25.5c1-5.4,1.7-10.8,1.9-16.2 c-2.5,0.1-5,0.3-7.5,0.4c0,9.2,1.2,18.7,3.8,27.5c1.9,6.4,4.6,12.5,9.1,17.5c2.5,2.9,5.4,5.5,8.7,7.5c1.2,0.8,6.6,3.2,6.7,3.3 c-0.2-1.3-0.4-2.6-0.6-3.8c-0.1,0.4-0.1,0.7-0.2,1.1c0.5-1,1-2,1.6-3.1c-2.2,2.5-5.7,4.2-8.2,6.6c-3.2,2.9-6,6.2-8.5,9.8 c-7,10.2-10.3,22.4-10.9,34.6c2.4-0.1,4.8-0.2,7.2-0.4c-3.1-20.2-14-46.7-36-51.8c-5.2-1.2-6.1,8.7-1.5,9.7 c19.1,4.4,27.7,27.6,30.4,45.1c0.7,4.6,7,4.3,7.2-0.4c0.6-12.6,4.2-24.7,12.5-34.3c2.6-3,5.5-5.6,8.7-7.9c3.9-2.8,7.3-7,3.8-12 c-1.5-2.1-4-2.6-6.2-3.7c-2.9-1.5-5.6-3.4-7.9-5.6c-4.8-4.6-7.4-10.1-9.1-16.4c-2.1-7.6-3-15.7-3-23.7c0-6.3-7.2-5.7-7.5,0.4 c0.1-2-0.2,2.3-0.3,3c-0.3,3.3-0.8,6.5-1.4,9.8c-1.4,7.6-2.7,16.4-7.4,22.8c-4.7,6.5-12.7,11.2-20.4,13.4 C152.2,112.4,154.1,122.1,159.2,120.6z"></path> </g> </g> </g> </svg> 