<?xml version="1.0" encoding="UTF-8"?> <!-- Generator: Adobe Illustrator 21.1.0, SVG Export Plug-In . SVG Version: 6.00 Build 0) --> <svg xmlns="http://www.w3.org/2000/svg" xmlns:xlink="http://www.w3.org/1999/xlink" id="Слой_1" x="0px" y="0px" viewBox="0 0 150 150" style="enable-background:new 0 0 150 150;" xml:space="preserve"> <style type="text/css"> .st0{fill:#568700;} .st1{fill:#FFFFFF;} .st2{fill:none;stroke:#568700;stroke-miterlimit:10;} </style> <g> <g> <path class="st1" d="M137.5,75.9c-0.3,25.9-15.5,49.8-40.2,58.8c-24.8,8.9-53.5,0.5-70.1-19.8C10.6,94.3,7.5,64.6,21.1,41.7 c13.4-22.5,39.8-34,65.4-28.6C115.8,19.3,137.2,46.1,137.5,75.9c0.1,7.5,12.2,4.4,12.1-1.7c-0.3-30.7-19.2-58.7-48.5-68.9 C71.3-5.3,37.7,4.9,17.5,29c-19.9,23.7-22.8,58.7-6.6,85.2c16,26.2,47.9,39.6,77.8,33.2c34.4-7.3,60.6-37.8,60.9-73.2 C149.7,66.6,137.6,69.7,137.5,75.9z"></path> </g> </g> <g> <g> <path class="st1" d="M70,30.4c0,16.4,0,32.8,0,49.2c0,3.1,1.7,5.7,4.9,5.7c11,0,22,0,33,0c6.1,0,7.1-12.8,0.1-12.8 c-11,0-22,0-33,0c1.6,1.9,3.3,3.8,4.9,5.7c0-16.4,0-32.8,0-49.2C80,20.5,70,23,70,30.4L70,30.4z"></path> </g> </g> </svg> 