<?xml version="1.0" encoding="UTF-8"?> <!-- Generator: Adobe Illustrator 21.1.0, SVG Export Plug-In . SVG Version: 6.00 Build 0) --> <svg xmlns="http://www.w3.org/2000/svg" xmlns:xlink="http://www.w3.org/1999/xlink" id="Слой_1" x="0px" y="0px" viewBox="0 0 150 150" style="enable-background:new 0 0 150 150;" xml:space="preserve"> <style type="text/css"> .st0{fill:#568700;} .st1{fill:#FFFFFF;} .st2{fill:none;stroke:#568700;stroke-miterlimit:10;} </style> <g> <g> <path class="st1" d="M67,55.5c-14.8,2.2-31.2,1.8-45.2-4.1c-3.2-1.4-8.2-3.8-9.6-7.3c-0.4-0.9-0.3-0.7,0-1.2 c0.8-1.8,3.6-3.3,5.1-4.1C29.4,31.7,45.5,31,59,32.2c7.1,0.6,14.3,2.1,20.9,4.9c3.7,1.6,8.6,4,10,8c2.7,7.6,11.5-0.7,9.4-6.6 c-3.7-10.2-15.8-14.7-25.5-16.9c-15-3.4-31.1-3.3-46,0.5c-10,2.5-21.9,7.7-25.3,18.4C-0.7,51,7.3,58.7,16,62.9 c14.9,7.1,33.5,7.7,49.5,5.3C71.7,67.3,73.7,54.5,67,55.5L67,55.5z"></path> </g> </g> <g> <g> <path class="st1" d="M1.7,45.5c0,17.4,0,34.8,0,52.1c0,5.9-1.2,13.9,1.2,19.5c5.8,13.3,26.1,16.6,38.6,17.5 c18,1.4,41.9-0.5,54.6-15c4.9-5.6-1.6-13.3-7.2-7c-4,4.6-11.7,6.5-17.4,7.8c-8.9,2-18.2,2.5-27.3,1.7c-7.9-0.6-15.8-2.1-23-5.4 c-3.4-1.6-8.4-4.1-9.2-8.1c-1-5,0-11.1,0-16.2c0-10.1,0-20.2,0-30.3c0-6.4,0-12.9,0-19.3C12.1,34.4,1.7,38.8,1.7,45.5L1.7,45.5z"></path> </g> </g> <g> <g> <path class="st1" d="M79.5,97.3c-13.6,5.1-29.4,5.7-43.7,3.3c-5.8-1-11.8-2.5-17.1-5.3c-2.2-1.2-7.2-3.8-7.4-6.9 c-0.4-7.8-9.5-5.7-9.2,1.2c0.6,13.4,15,19.1,26.3,21.7c17.2,4,36.5,3.3,53.1-2.9C87,106.4,86.1,94.8,79.5,97.3L79.5,97.3z"></path> </g> </g> <g> <g> <path class="st1" d="M69.2,79.9c-12.6,2.4-26,2.5-38.5-0.6c-6.3-1.6-18.4-5-18.8-13.1c-0.2-5-10.2-4.1-10,0.9 c0.5,10.4,13,15.8,21.5,18.4c14.9,4.5,31.3,4.8,46.5,2c2.1-0.4,4.9-1.6,4.7-4.2C74.3,80.8,71.3,79.5,69.2,79.9L69.2,79.9z"></path> </g> </g> <g> <g> <path class="st1" d="M138,106.7c-7.6,5.2-19.2-4.1-24.6-8.9C102.9,88.3,93.8,75.6,89.7,62c-1-3.2-2.6-8.6-0.6-11.8 c1.8-2.8,5.6-2.2,8.4-1.5c11.8,3.2,22,14.5,28.8,24c5,6.8,9.5,14.4,11.8,22.6c1.1,4,2.3,9.2-1.2,12.2c-4.7,3.9,0.7,15.2,6.5,10.4 c12.3-10.2,2.9-31.8-3.2-42.7c-8.4-15.1-21.8-31.4-38.3-38c-5.1-2-11.1-3.2-16.1-0.2c-5.4,3.2-7.3,10-7.3,15.9 c0.1,18,11.5,35.9,23.1,48.7c8.2,9.1,27.3,26.3,40.7,17.1C147.4,115.2,143.6,102.8,138,106.7z"></path> </g> </g> <g> <g> <path class="st1" d="M83.5,39.1c-5.8,4.8-11.7,9.5-17.4,14.4c-9,7.7-7.2,20.2-3.5,30.2c6,16.1,17.2,31.2,30.9,41.7 c8.8,6.7,21.4,13,31.8,6c6.7-4.5,12.9-9.8,19.4-14.6c2.2-1.7,4.6-4.9,2.7-7.6c-1.7-2.6-5.9-2.1-8.1-0.5 c-5.4,4.1-10.8,8.2-16.2,12.2c-1.6,1.2-3.2,2.7-4.4,2.8c-4.5,0.5-9.8-2.9-13.3-5.3C92.9,109.8,82.8,97,76.4,83.4 c-2.9-6.2-8.5-18.8-2.1-24.2C80,54.4,85.8,49.8,91.5,45c2.2-1.8,2.9-5.6,0.5-7.5C89.3,35.4,85.7,37.2,83.5,39.1L83.5,39.1z"></path> </g> </g> </svg> 