<?xml version="1.0" encoding="UTF-8"?> <!-- Generator: Adobe Illustrator 21.1.0, SVG Export Plug-In . SVG Version: 6.00 Build 0) --> <svg xmlns="http://www.w3.org/2000/svg" xmlns:xlink="http://www.w3.org/1999/xlink" id="Слой_1" x="0px" y="0px" viewBox="0 0 150 150" style="enable-background:new 0 0 150 150;" xml:space="preserve"> <style type="text/css"> .st0{fill:#568700;} .st1{fill:#FFFFFF;} .st2{fill:none;stroke:#568700;stroke-miterlimit:10;} </style> <g> <g> <path class="st1" d="M115.7,52.6c-0.1,7.4-3.6,15.5-6.7,22.5c-4.5,10.1-9.8,19.9-15.3,29.5c-6.7,11.6-13.7,23-21.3,34 c2.9-0.4,5.8-0.8,8.7-1.3c-12.8-18.8-24.9-38.5-34.7-59C41,66.9,35,54.3,37.8,41.4c3.9-17.9,20.3-29.9,38.5-29.3 C98,12.8,115.4,31.1,115.7,52.6c0.1,8.1,11.1,3.2,11.1-3.1c-0.3-21.3-13.7-40.6-34.2-47C71.8-4.1,48.7,4.3,36.1,21.8 c-10.7,14.8-12.3,32.1-6.2,48.9c5.9,16,14.4,31.2,23.1,45.8c5.9,9.9,12,19.7,18.5,29.3c2.2,3.2,6.9,1.4,8.7-1.3 c8.4-12.3,16.2-25,23.6-37.9c5.7-9.9,11.1-20,15.6-30.4c3.6-8.4,7.2-17.5,7.3-26.7C126.9,41.4,115.8,46.3,115.7,52.6z"></path> </g> </g> <g> <g> <path class="st1" d="M87.3,52.5c-0.2,6-4.7,11.2-11,10.5c-6.5-0.8-11.2-7.1-11-13.4c0.2-6,4.7-11.2,11-10.5 C83.1,39.9,87.1,46.1,87.3,52.5c0.3,6.9,12.7,3.3,12.5-3C99.3,37,88.6,27.9,76.2,28.6c-12.4,0.7-23.4,11.1-23.3,23.9 C53,65,64.4,74.1,76.5,73.4c12.9-0.8,22.8-11.1,23.3-23.9C100.1,42.8,87.6,46.3,87.3,52.5z"></path> </g> </g> </svg> 