<?xml version="1.0" encoding="UTF-8"?> <!-- Generator: Adobe Illustrator 21.1.0, SVG Export Plug-In . SVG Version: 6.00 Build 0) --> <svg xmlns="http://www.w3.org/2000/svg" xmlns:xlink="http://www.w3.org/1999/xlink" x="0px" y="0px" viewBox="0 0 1680 1050" style="enable-background:new 0 0 1680 1050;" xml:space="preserve"> <style type="text/css"> .st0{display:none;} .st1{display:inline;} .st2{display:inline;fill:#FFFFFF;} .st3{fill:#FFFFFF;} .st4{fill:none;} .st5{fill-rule:evenodd;clip-rule:evenodd;fill:#EDF0F2;} .st6{fill:#EFF1F3;} .st7{fill-rule:evenodd;clip-rule:evenodd;fill:#FFFFFF;} .st8{fill-rule:evenodd;clip-rule:evenodd;fill:#3A3A3A;} .st9{fill-rule:evenodd;clip-rule:evenodd;fill:#C21300;} .st10{fill:#3F3F3F;} .st11{fill:#354959;} .st12{fill:#EDF2F5;} </style> <g id="Слой_2" class="st0"> <g id="sdcx9d.tif" class="st1"> <image style="overflow:visible;" width="1401" height="808" id="Layer_0_1_" xlink:href="264CC59217E20747.png" transform="matrix(1.1991 0 0 1.1991 0 40.546)"> </image> </g> <rect x="13.6" y="928.6" class="st2" width="238.5" height="72"></rect> </g> <g id="Слой_1"> <rect x="-12.1" y="-18.1" class="st3" width="1709.5" height="1085"></rect> <g> <g> <path class="st12" d="M319.6,785c-21,0-42.1,0-63.1,0c-33.6,0-67.1,0-100.7,0c-7.8,0-15.5,0-23.3,0c1.4,1.1,2.9,2.1,4.3,3.2 c0-46.6,0-93.2,0-139.9c0-6.6,0-13.3,0-19.9c-1.2,1-2.4,2-3.6,3c21,0,42.1,0,63.1,0c33.6,0,67.1,0,100.7,0c7.8,0,15.5,0,23.3,0 c-1.4-1.1-2.9-2.1-4.3-3.2c0,46.6,0,93.2,0,139.9c0,6.6,0,13.3,0,19.9c0,3.8,7.9,4.5,7.9,0.2c0-46.6,0-93.2,0-139.9 c0-6.6,0-13.3,0-19.9c0-1.9-2.7-3.2-4.3-3.2c-21,0-42.1,0-63.1,0c-33.6,0-67.1,0-100.7,0c-7.8,0-15.5,0-23.3,0 c-1.9,0-3.6,0.9-3.6,3c0,46.6,0,93.2,0,139.9c0,6.6,0,13.3,0,19.9c0,1.9,2.7,3.2,4.3,3.2c21,0,42.1,0,63.1,0 c33.6,0,67.1,0,100.7,0c7.8,0,15.5,0,23.3,0C325.6,791.1,324.2,785,319.6,785z"></path> </g> </g> <g> <g> <path class="st12" d="M153.1,671c41.4,0,82.8,0,124.2,0c5.9,0,11.8,0,17.7,0c-0.8-0.9-1.6-1.9-2.4-2.8c0,27.8,0,55.7,0,83.5 c0,4,0,8,0,12.1c1.5-1.5,3-3,4.5-4.4c-41.4,0-82.8,0-124.2,0c-5.9,0-11.8,0-17.7,0c0.8,0.9,1.6,1.9,2.4,2.8c0-27.8,0-55.7,0-83.5 c0-4,0-8,0-12.1c0-5-6.9-2.3-6.9,1.6c0,27.8,0,55.7,0,83.5c0,4,0,8,0,12.1c0,1.4,0.8,2.8,2.4,2.8c41.4,0,82.8,0,124.2,0 c5.9,0,11.8,0,17.7,0c2.2,0,4.5-2.2,4.5-4.4c0-27.8,0-55.7,0-83.5c0-4,0-8,0-12.1c0-1.4-0.8-2.8-2.4-2.8c-41.4,0-82.8,0-124.2,0 c-5.9,0-11.8,0-17.7,0C151.4,663.7,148.5,671,153.1,671z"></path> </g> </g> <g> <g> <path class="st12" d="M161.2,644.7c0-10.9,0-21.8,0-32.7c0-4.3-7.9-4-7.9-0.2c0,10.9,0,21.8,0,32.7 C153.3,648.8,161.2,648.4,161.2,644.7L161.2,644.7z"></path> </g> </g> <g> <g> <path class="st12" d="M299.1,644.1c0-10.9,0-21.8,0-32.7c0-5.2-6.1-3.6-6.1,0.9c0,10.9,0,21.8,0,32.7 C293,650.3,299.1,648.7,299.1,644.1L299.1,644.1z"></path> </g> </g> <g> <g> <path class="st12" d="M208.5,645.2c0-10.9,0-21.8,0-32.7c0-4-7.9-5.1-7.9-1.2c0,10.9,0,21.8,0,32.7 C200.6,648,208.5,649.1,208.5,645.2L208.5,645.2z"></path> </g> </g> <g> <g> <path class="st12" d="M255.1,643.9c0-10.9,0-21.8,0-32.7c0-5.2-6.4-2.8-6.4,1.3c0,10.9,0,21.8,0,32.7 C248.6,650.5,255.1,648.1,255.1,643.9L255.1,643.9z"></path> </g> </g> <g> <g> <path class="st12" d="M154.2,703.9c41.4,0,82.8,0,124.2,0c5.9,0,11.8,0,17.7,0c3.8,0,4.1-7.9-0.2-7.9c-41.4,0-82.8,0-124.2,0 c-5.9,0-11.8,0-17.7,0C150.3,696,149.9,703.9,154.2,703.9L154.2,703.9z"></path> </g> </g> <g> <g> <path class="st12" d="M154.3,731.6c41.4,0,82.8,0,124.2,0c5.9,0,11.8,0,17.7,0c4.3,0,3.5-7.9-0.3-7.9c-41.4,0-82.8,0-124.2,0 c-5.9,0-11.8,0-17.7,0C149.7,723.7,150.5,731.6,154.3,731.6L154.3,731.6z"></path> </g> </g> <g> <g> <path class="st12" d="M222.1,669c0,26.3,0,52.6,0,78.9c0,3.7,0,7.5,0,11.2c0,5,6,5.2,6,0.2c0-26.3,0-52.6,0-78.9 c0-3.7,0-7.5,0-11.2C228.1,664.3,222.1,664,222.1,669L222.1,669z"></path> </g> </g> <g> <g> <path class="st12" d="M184.9,668.8c0,25.8,0,51.6,0,77.4c0,3.7,0,7.4,0,11.1c0,4,8,4.5,8,0.6c0-25.8,0-51.6,0-77.4 c0-3.7,0-7.4,0-11.1C192.9,665.4,184.9,664.9,184.9,668.8L184.9,668.8z"></path> </g> </g> <g> <g> <path class="st12" d="M259.2,669.3c0,26.3,0,52.6,0,78.9c0,3.7,0,7.5,0,11.2c0,5,6,4.7,6-0.3c0-26.3,0-52.6,0-78.9 c0-3.7,0-7.5,0-11.2C265.2,664,259.2,664.3,259.2,669.3L259.2,669.3z"></path> </g> </g> <g> <g> <path class="st12" d="M1487,780.3c8-2.4,15.8-8,20.3-15c6.2-9.7,7.9-23.7,8.4-35c-2.2,0.8-4.4,1.6-6.7,2.4 c-0.1,16.5,3.3,36.6,19.6,44.8c1.9,0.9,1.7,1.4,2.6-0.6c1.4-2.9,0.2-1.1-0.7-0.7c-1.3,0.7-2.6,2-3.7,3c-2.9,2.6-5.4,5.5-7.6,8.7 c-6.3,9.2-9,19.9-9.6,30.9c2.2-0.8,4.4-1.6,6.7-2.4c-2.3-16.5-10-38.7-28-43.3c-3.7-0.9-7.1,6.2-2.9,7.3 c15.5,4,22.3,24.2,24.3,38.4c0.7,5.2,6.5,1.2,6.7-2.4c0.6-10.4,3.7-20.9,10.7-28.8c3-3.4,14.2-9.4,9.2-14.9 c-1.2-1.3-3.2-1.7-4.7-2.6c-2.6-1.5-5-3.5-7-5.8c-3.5-4-5.4-8.7-6.6-13.8c-1.6-6.5-2.3-13.4-2.3-20c0-5-6.5-1.3-6.7,2.4 c-0.4,8.6-1.8,21.5-6.7,29.3c-3.4,5.4-9.6,9.5-15.7,11.3C1482.9,774.4,1482.3,781.7,1487,780.3z"></path> </g> </g> <g> <g> <path class="st12" d="M1419.7,637.5c18.9-21.5,17-55.9-4.3-75.1c-19.6-17.6-50-16.3-67.6,3.5c-8.8,9.8-13.3,22.9-13,36 c0.1,7.4,1.7,14.8,4.8,21.5c3.3,7.2,8.5,12.4,12.9,18.8c7.5,11,8.2,23.1,8.2,35.9c0,4.3-0.2,7.9,2.9,11.4 c4.2,4.8,11.2,6.6,17.3,7.1c7.3,0.6,16.5-0.4,22.3-5.3c3.9-3.3,3.9-7.1,3.9-11.8c0-5.5-0.2-11.1,0.6-16.6 C1409.1,653.4,1413.3,644.7,1419.7,637.5c2.5-2.8-2-9.1-5.1-5.6c-8.6,9.7-13.3,22.3-13.8,35.3c-0.1,3.2,0,6.5,0,9.7 c0,3.7,0.5,6.4-3.1,8.6c-5.8,3.7-14.1,4.1-20.7,2.9c-4-0.7-10.1-2.1-10.2-6.8c-0.2-8.7,0.3-17-1.8-25.5 c-1.6-6.3-4.2-12.4-7.8-17.7c-3.6-5.4-8.3-9.8-11.3-15.6c-6.2-11.8-6.4-26.1-1.4-38.3c9.1-21.8,34.9-32.9,56.7-23.3 c27.9,12.3,32.6,48.8,13.3,70.7C1412.1,634.8,1416.6,641,1419.7,637.5z"></path> </g> </g> <g> <g> <path class="st12" d="M1383.9,679.5c0.8-15.5,0.8-31.3-0.5-46.8c-0.7-8.5-1.3-18.4-5.4-26.1c-3.4-6.5-10.7-7.8-16.1-2.4 c-8,7.8-2.5,21.9,2.8,29.7c5.9,8.6,16.6,16,26.7,9.6c9.2-5.8,15.3-17.2,18.7-27.2c3-8.7,4.7-21.9-5.7-26.3 c-11.4-4.8-14.1,9.3-14.7,17.2c-1.6,20.9-0.5,42-1.6,63c-0.2,4.1,7.5,2,7.7-1.8c0.9-16.2,0.8-32.5,1.1-48.7 c0.1-7.8-0.3-17.9,2.9-24.6c-0.1,0.2-1,0.4-1.1,0.3c0.6,0.3,1.3,0.4,1.9,0.7c1.6,0.8,2.7,2.2,3.4,3.8c1.6,3.8,0.9,8.3,0,12.2 c-2.2,8.9-7.1,18.6-13.9,24.9c-7.1,6.5-15.2-1.8-19.1-8.2c-2.7-4.4-8.8-18.1-3-21.5c0.4-0.2,0.3-0.2,0.7,0.1 c0.5,0.3,1.1,1,1.6,1.6c1.6,2.3,2.4,5.2,3,7.8c2,7.8,2.6,16.1,3,24.1c0.7,13.4,0.7,27,0,40.4 C1376,685.4,1383.7,683.3,1383.9,679.5L1383.9,679.5z"></path> </g> </g> <g> <g> <path class="st12" d="M1372,703.7c-3.7,3.4-7.3,7.8-8.7,12.6c-2.7,9.3,5.4,13.5,13.4,14.7c7.7,1.1,23.8,2.7,28-6.5 c3-6.6-4-11.5-9.5-13.1c-17.1-4.8-34.9,14.9-31.9,31.6c2,11.4,14.9,16.1,25.2,16.9c7.2,0.5,15.6-3.5,14.7-11.9 c-2.1-20.8-49.6-1-35.4,17.5c2.6,3.4,8.3-2.1,6-5.1c-5.5-7.1,6.4-11.9,11.9-13.2c3.1-0.8,10-2,10.6,2.9c0.6,4.1-6.9,2.5-9.4,2 c-7.1-1.4-16.2-4.7-17.1-13.1c-1.1-10.3,9.4-22.7,20-20.9c3.1,0.5,7.6,2.1,8.7,5.2c-0.2-0.7,1-1.1,0.1-0.6 c-1,0.5-2.1,0.8-3.2,1.1c-4.5,1-9.4,0.7-14,0.3c-4.5-0.4-14.2-1.8-11.4-8.5c1.1-2.7,3.5-5.3,5-6.7 C1378.6,705.9,1375.9,700.1,1372,703.7L1372,703.7z"></path> </g> </g> <g> <g> <path class="st12" d="M1456.8,427.4c17.9,0,35.9,0,53.8,0c4.3,0,3.5-7.9-0.3-7.9c-17.9,0-35.9,0-53.8,0 C1452.2,419.5,1453,427.4,1456.8,427.4L1456.8,427.4z"></path> </g> </g> <g> <g> <path class="st12" d="M1471.5,455.4c13.1-4.8,26.3-9.7,39.4-14.5c3.6-1.3,3.9-8.7-0.8-7c-13.1,4.8-26.3,9.7-39.4,14.5 C1467,449.7,1466.8,457.1,1471.5,455.4L1471.5,455.4z"></path> </g> </g> <g> <g> <path class="st12" d="M1475.6,400.8c11.4,3.9,22.7,7.8,34.1,11.7c4.7,1.6,6.2-4.2,1.5-5.8c-11.4-3.9-22.7-7.8-34.1-11.7 C1472.4,393.4,1470.9,399.2,1475.6,400.8L1475.6,400.8z"></path> </g> </g> <g> <g> <path class="st12" d="M1448.2,295.2c3.5,4.5,7,9.1,10.5,13.6c0-2.1-0.1-4.2-0.1-6.3c-13.5,10.4-27.1,20.9-40.6,31.3 c-9.5,7.3-19,14.6-28.5,21.9c-4.9,3.8-9.7,8.5-15.1,11.6c-0.7,0.4,0.7-0.4,0.3-0.3c-0.6,0.2-1.3,0.4-1.9,0.6 c-2.9,1-5.7,1.9-8.6,2.9c-4.8,1.6-9.5,3.2-14.3,4.8c1.2,2.1,2.4,4.2,3.6,6.3c2.4-3.7,4.8-7.3,7.2-11c2.3-3.5,4.4-7.7,7.2-10.9 c-1.1,1.3-0.1,0.3,0.3,0.1c0.9-0.6,1.7-1.3,2.5-1.9c3.1-2.4,6.2-4.8,9.3-7.2c18.7-14.4,37.5-28.9,56.2-43.3 c5.2-4,10.4-8,15.6-12.1c3-2.3-0.1-9.4-3.8-6.5c-13.7,10.5-27.4,21.1-41,31.6c-9.6,7.4-19.1,14.7-28.7,22.1 c-4.7,3.6-10.5,7-14.6,11.3c-2.6,2.7-4.5,6.6-6.5,9.7c-2.9,4.3-5.7,8.7-8.6,13c-1.7,2.5,0.2,7.5,3.6,6.3 c4.1-1.4,8.3-2.8,12.4-4.2c4-1.3,8.7-2.2,12.4-4.2c4.4-2.3,8.5-6.5,12.5-9.5c19-14.7,38-29.3,57-44c5.2-4,10.4-8,15.6-12.1 c1.9-1.5,1.1-4.7-0.1-6.3c-3.5-4.5-7-9.1-10.5-13.6C1448.8,285.2,1445.9,292.2,1448.2,295.2z"></path> </g> </g> <g> <g> <path class="st12" d="M1383.2,364.7c-3.5-4.5-7-9.1-10.5-13.6c-2.6-3.4-8,2.5-5.6,5.5c3.5,4.5,7,9.1,10.5,13.6 C1380.2,373.6,1385.5,367.8,1383.2,364.7L1383.2,364.7z"></path> </g> </g> <g> <g> <path class="st12" d="M66.4,510.6c-5.5,14.2-18.9,24.3-34.4,24c-15.5-0.3-29-11-33.8-25.6c-4.8-14.6,0-31.3,12-41 c12.1-9.7,29.2-10.5,42.1-1.8C66.8,476,72.1,494.4,66.4,510.6c-1.4,4,6.5,5,7.7,1.4c6.1-17.3,0.8-36.6-13.6-48.2 c-14.4-11.6-35.2-12.8-51-3.4c-15.5,9.2-24,27.5-20.4,45.3c3.6,17.9,18.5,31.7,36.5,34.4c20.7,3.1,40.9-8.6,48.5-28.1 C75.7,508.1,67.8,507.1,66.4,510.6z"></path> </g> </g> <g> <g> <path class="st12" d="M128.3,500c9.4,13,9.3,30.6-0.7,43.4c-8.2,10.5-21.6,15.9-34.8,14.2c-13.3-1.7-25-10.7-29.7-23.4 c-5-13.8-0.7-29.2,10-39.1c2.8-2.6-0.4-9.9-3.4-7.1c-20.1,18.5-19.5,51.6,2.4,68.6c21.1,16.5,52.4,9.4,64.6-14.4 c7.9-15.3,5.6-33.7-4.4-47.5C129.3,490.6,125.9,496.7,128.3,500L128.3,500z"></path> </g> </g> <g> <g> <path class="st12" d="M119.8,464.7c-5.5,14.1-18.5,24-33.7,24.7c-15.4,0.7-30.3-8.5-36.1-22.9c-5.8-14.5-0.9-31.4,11.1-41.1 c11.8-9.6,28.5-11.2,41.9-4C118.5,429.6,125.6,448.2,119.8,464.7c-1.2,3.6,3.7,9.3,5.3,4.6c6-17.2,1.9-36.5-11.7-49 c-13.5-12.5-34.1-14.9-50.1-5.9c-15.9,9-24.1,27.6-21.3,45.4c2.8,17.8,16.5,32.6,34.2,36.5c20.7,4.5,41.4-7.6,48.9-27 C126.5,465.8,121.6,460.1,119.8,464.7z"></path> </g> </g> <g> <g> <path class="st12" d="M1645.7,497.5c-8.4-7.2-10.5-19.7-8.1-30c2.6-10.9,9.9-19,18.2-26.1c8.2-7,17-13.3,23.7-21.8 c8.1-10.3,11.7-22.7,12-35.8c0.5-25.3-7.8-50.9-29.8-65.3c-17.7-11.6-40.4-14.3-61.1-11.7c-11.6,1.4-27.4,3.9-35.9,12.5 c-5.1,5.2-4.2,12.7,1.4,17.1c-0.3-0.8-0.6-1.5-0.9-2.3c-1.8,6.4-3.9,12.7-6.2,18.9c-3.2,8.8-6,16.6-14.1,21.8 c-5.7,3.6-20.4,8.9-19.9,17.5c0.3,4.5,4.1,7.1,7.4,9.5c2,1.4,4.6,3.3,2.6,5.9c-0.8,1-2.7,1.6-3.8,2c-1.1,0.3-2.1,1.1-2.3,2.3 c-1.4,8.4,6.6,14.1,13.5,16.4c-0.1-1.9-0.1-3.7-0.2-5.6c-5.7,1.1-14.7,5.1-11.7,12.4c0.7,1.7,2.1,2.9,2.4,4.8 c0.3,2-0.2,4.4-0.2,6.5c0,4.3-0.2,8.9,3.8,11.5c6.9,4.5,17.6,0.6,25-0.4c2.2-0.3,6.2-1.4,7.5,0.7c2.1,3.2,0.7,10.4,0.4,13.9 c-0.7,8.9-2.2,17.8-4,26.6c-0.8,3.9,7.1,5,7.9,1.1c1.4-6.7,2.5-13.6,3.4-20.4c0.8-6.7,3.5-19.2-1.5-24.9 c-4.9-5.7-15.3-2.9-21.6-1.8c-2.7,0.5-9,2.5-11.6,1.1c-2.8-1.5-1.4-7.8-1.3-10.8c0.1-1.8,0.1-3.5-0.5-5.2 c-0.6-1.7-2.9-3.6-2.4-5.5c0.7-2.4,5.5-3.4,7.6-3.8c3.4-0.6,2.5-4.7-0.2-5.6c-4.3-1.4-9.4-4.5-8.5-9.8c-0.8,0.8-1.5,1.5-2.3,2.3 c3.4-1,7.7-3,8.9-6.6c1.5-4.6-1.9-8.6-5.4-11c-1.8-1.2-5-2.7-5-5.3c0-2.1,2.8-3.9,4.3-5c4.7-3.3,10-5.8,14.8-9.1 c8.1-5.6,11.2-13.9,14.4-22.8c2.5-6.7,4.7-13.6,6.7-20.5c0.2-0.7-0.3-1.9-0.9-2.3c-15.1-11.9,24.6-19.6,31.9-20.4 c19.3-2,40.5,0.8,56.3,13c19.7,15.3,26.1,43.6,22.3,67.3c-1.9,11.4-7.3,21.2-15.4,29.3c-7.1,7.1-15.5,12.7-22.7,19.7 c-8.4,8.1-14.9,18.5-15.8,30.4c-0.8,10.2,2.8,21.8,10.8,28.7C1642.4,503.4,1649.5,500.7,1645.7,497.5L1645.7,497.5z"></path> </g> </g> <g> <g> <path class="st12" d="M1587.9,350c6.4,4.2,11.3,11.8,13.3,19.1c1,3.5,1.4,7.2,1.3,10.8c-0.1,4.5-2.2,8.6-2.5,13 c-0.2,2.5,1.1,3.9,3.2,5.1c1.6,1,6.4,1.8,7.3,3.4c1.5,2.8,6.7,2.4,7.7-0.7c1-3,2.7-6.2,5.1-8.3c4.7-4.1,10.2,0.6,11,5.8 c1.4,9-6.7,26.2-17.9,22.6c-3.9-1.3-8.6,3.9-3.6,5.5c17,5.4,33.7-15,28.9-31.2c-2.4-8.2-12.3-12.4-20.1-9.2 c-5.7,2.4-9.5,8.2-11.4,13.9c2.6-0.2,5.1-0.5,7.7-0.7c-1.4-2.5-4-3.5-6.5-4.6c-1.1-0.5-2.7-0.8-3.6-1.7c-0.4-0.3-0.4-0.1,0,0.6 c0.2-0.5,0.3-1,0.5-1.5c0.5-1.1,0.7-2.5,1-3.7c1.7-7.7,1.5-15.6-1.1-23.1c-2.7-7.7-8.2-15.3-15.1-19.8 C1589.9,343.1,1583.7,347.2,1587.9,350L1587.9,350z"></path> </g> </g> <g> <g> <path class="st12" d="M158.6,316.3c6.6-2.4,13.2-6.8,17.3-12.5c5.6-7.6,7.1-19.3,7.5-28.5c-2-0.4-4-0.8-6-1.2 c0,6.5,0.8,13,2.6,19.2c1.2,4.4,3.1,8.4,6.1,11.9c1.5,1.8,3.2,3.3,5.1,4.7c1,0.7,2,1.4,3.1,2c1.4,0.7,1.7,1.6,1.5-0.4 c0.3-1.2,0.6-2.4,0.9-3.6c-1.3,1.8-3.7,3-5.4,4.4c-2.3,2.1-4.2,4.4-5.9,6.9c-4.7,7-6.8,15.2-7.3,23.6c2,0.1,4,0.1,6,0.2 c-3.3-14-11.7-30.5-26.8-34.1c-4.1-1-4.1,7-0.4,7.9c8,1.9,13.3,8.5,16.9,15.6c1.4,2.7,2.5,5.6,3.4,8.5c0.3,0.9,0.5,1.7,0.8,2.6 c0.4,1.3,0-0.2,0.1,0.5c0.9,3.8,5.7,5,6,0.2c0.5-8.5,3.1-16.7,8.9-23.1c3.3-3.5,10.5-6.4,8.2-12.3c-1.2-3-4.8-3.6-7.2-5.2 c-4.1-2.7-6.7-6.5-8.3-11.1c-1.8-5.3-2.5-11.2-2.5-16.9c0-4.5-5.8-6.6-6-1.2c-0.4,8-1.5,18.9-6.9,25.1c-3.8,4.4-9.2,7.7-14.6,9.7 C152.4,310.2,154.6,317.8,158.6,316.3z"></path> </g> </g> <g> <g> <path class="st12" d="M226,373.8c8.5-2.4,16.9-8.1,21.8-15.4c4.4-6.7,6-15.4,7.4-23.1c0.9-4.7,1.5-9.4,1.7-14.2 c-2,0.1-4,0.2-6,0.3c0,8.2,1.1,16.7,3.3,24.6c1.6,5.6,4,10.9,7.8,15.4c2.2,2.6,4.8,4.9,7.6,6.8c1.2,0.8,2.5,1.5,3.8,2.2 c0.6,0.3,1.1,0.6,1.7,0.8c1.3,0.9,1.5,0.3,0.5-1.6c0.4-0.8,0.8-1.6,1.3-2.5c-1.9,2.1-4.8,3.6-7,5.5c-3,2.7-5.7,5.8-8,9.2 c-6.3,9.2-9.3,20-9.8,31.1c1.9-0.1,3.9-0.2,5.8-0.3c-2.8-18.1-12.5-41.8-32.2-46.4c-4.2-1-4.9,6.9-1.2,7.8 c17.4,4.1,25.3,25.1,27.8,41.1c0.6,3.7,5.6,3.4,5.8-0.3c0.6-11.6,3.9-22.8,11.7-31.7c2.3-2.6,5-5,7.9-7c3.2-2.2,5.7-5.5,3.4-9.5 c-1-1.8-2.8-2.2-4.5-3.1c-2.9-1.3-5.5-3.1-7.8-5.2c-4.6-4.2-7.2-9.3-8.9-15.2c-2-7.1-2.8-14.6-2.8-21.9c0-5.1-5.8-4.6-6,0.3 c0.1-1.2-0.2,1.9-0.2,2.6c-0.3,2.7-0.6,5.4-1.1,8.1c-1.2,7.3-2.5,15.8-7,21.9c-4.4,5.9-11.5,10.2-18.5,12.3 C220.3,367.2,221.8,375,226,373.8z"></path> </g> </g> </g> </svg> 